<?xml version="1.0" encoding="UTF-8"?>
<svg id="Capa_2" xmlns="http://www.w3.org/2000/svg" viewBox="0 0 443.07 443.07">
<g id="Capa_1-2"><g>
<path d="M430.03,190.06L253.02,13.04c-17.39-17.38-45.57-17.38-62.97,0L13.05,190.06c-17.39,17.38-17.39,45.57,0,62.96l177.01,177.02c17.39,17.38,45.57,17.38,62.97,0l177.01-177.02c17.39-17.38,17.39-45.57,0-62.96Zm-30.15,49.21l-160.61,160.62c-9.79,9.79-25.68,9.79-35.47,0L64.67,260.75l-21.47-21.49c-9.8-9.79-9.8-25.67,0-35.46L203.8,43.18c9.79-9.79,25.68-9.79,35.47,0l21.47,21.49,39.23,39.22,39.22,39.22,39.22,39.22,21.47,21.49c9.79,9.79,9.79,25.67,0,35.46Z"/><g><path d="M330.75,287.91c1.52,2.1,.01,5.03-2.57,5.03-1.56,0-2.97,0-4.38,0-9.83,0-19.66-.13-29.49,.07-3.56,.07-5.89-1.16-7.93-4.03-4.44-6.23-9.29-12.18-13.7-18.43-2.06-2.92-4.45-3.86-7.96-3.85-29.99,.13-59.98,.08-89.97,.08q-7.72,0-7.72-7.94c0-7.33,.17-14.66-.07-21.98-.13-4.02,1.07-5.6,5.34-5.52,18.32,.37,36.65,.59,54.98,.61,18.48,.02,36.96-.12,55.44-.45,11.57-.21,19.43-7.87,19.52-18.43,.09-10.77-7.86-18.65-19.59-18.94-10.99-.27-21.99-.25-32.99-.07-3.97,.06-5.26-1.38-5.17-5.23,.2-8.99,.06-17.98,.08-26.97,0-2.17-.21-4.63,3.08-4.53,15.29,.43,30.75-.36,45.84,1.67,20.87,2.8,34.92,15.66,42.13,35.34,7.52,20.53,2.91,38.96-11.23,55.21-2.61,3-5.5,5.88-8.72,8.18-3.88,2.76-3.53,5.03-.86,8.45,5.52,7.08,10.67,14.46,15.95,21.74h0Z"/><path d="M120.24,231.29c0-17.47-.09-34.95,.02-52.42,.17-27.49,20.14-50.31,46.85-53.69,28.89-3.66,54.91,12.64,61.71,39.63,2.08,8.24,1.55,17.14,2.19,25.74,.21,2.87-1.39,3.71-4.01,3.69-9.49-.06-18.98-.06-28.47,0-2.71,.02-3.93-1.07-3.89-3.86,.06-3.49,.05-7-.26-10.47-1.05-11.62-8.69-19.2-19.09-19.12-10.31,.08-17.76,7.82-18.56,19.59-.32,4.64-.2,9.31-.2,13.97-.03,30.62-.05,61.24-.07,91.86,0,6.73-.02,6.73-6.58,6.74-7.83,0-15.67-.27-23.47,.11-4.94,.24-6.66-1.13-6.58-6.34,.31-18.47,.42-36.94,.42-55.41,.1,0-.1,0,0,0Z"/></g></g></g></svg>